<svg width="66" height="56" viewBox="0 0 66 56" fill="none" xmlns="http://www.w3.org/2000/svg">
<g clip-path="url(#clip0_1_6)">
<path d="M37.2365 16.87L35.9941 15.87C35.7999 15.7043 35.5515 15.626 35.3029 15.6522C35.0543 15.6784 34.8256 15.807 34.6664 16.01L17.4721 36.83L17.7377 37.14L21.9959 33C21.854 32.9398 21.7366 32.8291 21.6641 32.6871C21.5915 32.5451 21.5685 32.3807 21.5989 32.2227C21.6293 32.0646 21.7113 31.9227 21.8306 31.8218C21.95 31.7208 22.099 31.6671 22.252 31.67C22.3899 31.67 22.5242 31.7166 22.6352 31.803C22.7461 31.8894 22.8279 32.011 22.8684 32.15L28.4829 26.66C28.5689 26.587 28.6759 26.5472 28.7864 26.5472C28.8968 26.5472 29.0039 26.587 29.0898 26.66L29.3744 26.88C29.4706 26.9528 29.5892 26.9849 29.7068 26.9701C29.8244 26.9553 29.9325 26.8946 30.0098 26.8L37.3503 18.12C37.4283 18.0339 37.4878 17.931 37.5248 17.8184C37.5617 17.7058 37.5753 17.5862 37.5645 17.4676C37.5537 17.349 37.5188 17.2343 37.4622 17.1312C37.4056 17.028 37.3286 16.939 37.2365 16.87Z" fill="#303030"/>
<path d="M45.3167 22.73C41.554 25.553 37.3387 27.6364 32.8739 28.88C28.4425 30.0683 23.908 30.7786 19.3404 31C19.4324 31.7102 19.5977 32.4077 19.8336 33.08C22.4132 35.54 41.8361 31.34 45.6297 26.48C46.4358 25.47 45.3167 22.73 45.3167 22.73ZM22.2519 33C22.1244 33 21.9997 32.9601 21.8937 32.8854C21.7876 32.8107 21.7049 32.7045 21.6561 32.5802C21.6073 32.456 21.5945 32.3192 21.6194 32.1873C21.6443 32.0554 21.7057 31.9342 21.7959 31.8391C21.8861 31.744 22.001 31.6793 22.1261 31.653C22.2512 31.6268 22.3809 31.6403 22.4987 31.6917C22.6166 31.7432 22.7173 31.8304 22.7882 31.9422C22.859 32.054 22.8968 32.1855 22.8968 32.32C22.8981 32.4097 22.8823 32.4987 22.8504 32.5818C22.8184 32.6649 22.7709 32.7404 22.7108 32.8038C22.6507 32.8672 22.5791 32.9173 22.5002 32.951C22.4214 32.9847 22.337 33.0013 22.2519 33Z" fill="#303030"/>
<path d="M3.90133 21.2899L4.05307 20.5999L6.51888 21.1899C6.72231 21.5861 6.84809 22.0214 6.88875 22.4699C6.93581 22.945 6.90696 23.425 6.80339 23.8899C6.68063 24.5352 6.39938 25.1352 5.98778 25.6299C5.59618 26.097 5.09124 26.4428 4.52726 26.6299C3.94599 26.8189 3.32775 26.8431 2.73481 26.6999C2.14057 26.5646 1.59283 26.2603 1.15101 25.8199C0.715951 25.3969 0.403549 24.8526 0.250038 24.2499C0.07974 23.5954 0.07974 22.9045 0.250038 22.2499C0.351968 21.76 0.534959 21.2929 0.790618 20.8699C1.03259 20.4853 1.35761 20.1665 1.73901 19.9399L2.08042 20.4899C1.75352 20.7016 1.47291 20.9839 1.25711 21.3183C1.04132 21.6527 0.895251 22.0316 0.828554 22.4299C0.710941 22.9473 0.720735 23.4877 0.857005 23.9999C0.98444 24.4863 1.23721 24.9259 1.58726 25.2699C1.94706 25.6367 2.39722 25.8896 2.88655 25.9999C3.36106 26.1404 3.86308 26.1404 4.33759 25.9999C4.79214 25.8417 5.2004 25.5628 5.52307 25.1899C5.85467 24.7873 6.08318 24.3019 6.18694 23.7799C6.34298 23.1468 6.30311 22.4776 6.07313 21.8699L3.90133 21.2899Z" fill="#303030"/>
<path d="M9.26853 14.9999L7.05879 18.1099L8.00718 19.8999L7.57092 20.5199L4.06189 13.7699L4.4697 13.1799L11.6111 14.7999L11.1653 15.4199L9.26853 14.9999ZM8.6426 14.8399L4.84905 13.9399L6.74582 17.5299L8.6426 14.8399Z" fill="#303030"/>
<path d="M8.64258 8.5501L9.21161 8.1001L12.825 13.2001L15.8029 10.8501L16.1633 11.3601L12.6258 14.1501L8.64258 8.5501Z" fill="#303030"/>
<path d="M14.6174 4.38008L15.2529 4.08008L17.7566 9.86008L21.1423 8.24008L21.3889 8.82008L17.3678 10.7501L14.6174 4.38008Z" fill="#303030"/>
<path d="M27.1172 6.68003L27.2594 7.31003L22.6882 8.44003L21.1708 1.62003L25.6092 0.530029L25.742 1.15003L21.9485 2.08003L22.489 4.50003L25.8274 3.67003L25.9696 4.29003L22.6218 5.11003L23.1908 7.64003L27.1172 6.68003Z" fill="#303030"/>
<path d="M33.6326 6.92997L32.0488 4.72997C31.8719 4.74029 31.6946 4.74029 31.5177 4.72997L29.7347 4.78997L29.8011 7.00997H29.0993L28.8812 0.00996866L31.4039 -3.1339e-05C32.1171 -0.0694894 32.8304 0.132721 33.4145 0.569969C33.6606 0.778962 33.8585 1.04418 33.9932 1.3456C34.1279 1.64702 34.1959 1.97678 34.1921 2.30997C34.2198 2.80416 34.0969 3.29473 33.8412 3.70997C33.5687 4.10853 33.1836 4.40603 32.7411 4.55997L34.4008 6.89997L33.6326 6.92997ZM32.9687 3.63997C33.1392 3.47531 33.2714 3.27154 33.3553 3.04439C33.4392 2.81725 33.4724 2.57281 33.4524 2.32997C33.4573 2.08584 33.4095 1.84374 33.3125 1.62198C33.2156 1.40022 33.0721 1.20461 32.8928 1.04997C32.4557 0.737448 31.9301 0.592707 31.4039 0.639969L29.6019 0.709969L29.7157 4.20997L31.4797 4.14997C32.0176 4.17096 32.5452 3.99026 32.9687 3.63997Z" fill="#303030"/>
<path d="M38.6495 5.07L38.3081 7.46L37.6158 7.35L37.9667 5L36.0035 0L36.7433 0.12L38.4219 4.38L41.2671 0.85L41.931 1L38.6495 5.07Z" fill="#303030"/>
<path d="M48.0291 4.64993L48.8542 5.77993L48.4938 6.07993L47.6687 4.91993L47.1471 6.22993L46.7488 6.04993L47.2799 4.73993L45.9142 4.92993V4.44993L47.2609 4.28993L46.4263 3.15993L46.7962 2.85993L47.5264 3.99993L48.0386 2.67993L48.4464 2.85993L47.9627 4.19993L49.3284 3.99993V4.48993L48.0291 4.64993Z" fill="#303030"/>
<path d="M51.1967 12.7099C50.9728 12.3458 50.8331 11.9314 50.7889 11.4999L51.3485 11.2399C51.3905 11.6363 51.5134 12.0184 51.7089 12.3599C51.9207 12.7428 52.1971 13.0817 52.5245 13.3599C52.8625 13.7012 53.2939 13.9216 53.7574 13.9899C53.9249 14.0063 54.0936 13.9793 54.249 13.9114C54.4043 13.8434 54.5416 13.7365 54.6489 13.5999C54.7275 13.5084 54.7875 13.4008 54.825 13.2838C54.8625 13.1669 54.8768 13.043 54.867 12.9199C54.8356 12.6762 54.7582 12.4416 54.6394 12.2299C54.4612 11.923 54.2681 11.6259 54.0609 11.3399C53.8084 10.9911 53.5802 10.6235 53.378 10.2399C53.2235 9.95284 53.1388 9.6299 53.1315 9.29992C53.1308 8.92934 53.2629 8.57218 53.5013 8.29992C53.708 8.03604 53.9807 7.83857 54.2885 7.72992C54.6324 7.62518 54.9973 7.62518 55.3412 7.72992C55.7843 7.88269 56.1938 8.12751 56.5456 8.44992C56.8376 8.70599 57.096 9.00192 57.3138 9.32992C57.5153 9.63408 57.6661 9.97227 57.7596 10.3299L57.219 10.6299C57.1247 10.2966 56.9841 9.97979 56.8017 9.68992C56.62 9.43106 56.4063 9.199 56.1663 8.99992C55.8333 8.66016 55.4032 8.44575 54.9429 8.38992C54.7737 8.375 54.6037 8.40466 54.448 8.47623C54.2924 8.5478 54.1561 8.65903 54.0514 8.79992C53.9707 8.89 53.9095 8.99741 53.8718 9.11477C53.8342 9.23214 53.821 9.35669 53.8333 9.47992C53.8555 9.73209 53.9334 9.97526 54.0609 10.1899C54.1937 10.4199 54.3833 10.7199 54.6394 11.0799C54.8932 11.4207 55.1215 11.7818 55.3222 12.1599C55.48 12.4461 55.568 12.7691 55.5783 13.0999C55.579 13.4705 55.4468 13.8277 55.2084 14.0999C55.001 14.3674 54.7242 14.5655 54.4118 14.6699C54.0685 14.7792 53.7023 14.7792 53.3591 14.6699C52.913 14.5176 52.5002 14.2728 52.1451 13.9499C51.7623 13.5986 51.4413 13.1788 51.1967 12.7099Z" fill="#303030"/>
<path d="M60.7375 14.17L59.4003 12.17L59.8934 11.8L62.9757 16.44L62.4825 16.81L61.1453 14.81L56.1947 18.46L55.7964 17.85L60.7375 14.17Z" fill="#303030"/>
<path d="M58.6131 22.39C58.7824 21.7856 59.1114 21.2445 59.5615 20.83C60.0018 20.4141 60.5383 20.1279 61.1168 20C61.7066 19.8572 62.3217 19.8814 62.8998 20.07C63.4578 20.2645 63.9579 20.6092 64.3508 21.07C64.7594 21.5656 65.0374 22.1656 65.157 22.81C65.3141 23.4426 65.3141 24.1073 65.157 24.74C64.983 25.3421 64.6548 25.8819 64.2086 26.3C63.7561 26.727 63.2064 27.0233 62.6131 27.16C62.0198 27.2967 61.403 27.2691 60.8228 27.08C60.2606 26.8949 59.7582 26.5487 59.3718 26.08C58.9651 25.587 58.6873 24.9907 58.5657 24.35C58.4208 23.7033 58.4371 23.028 58.6131 22.39ZM59.8555 25.57C60.1721 25.9502 60.5825 26.2306 61.041 26.38C61.5136 26.5245 62.013 26.5417 62.4935 26.4298C62.9741 26.318 63.4203 26.0808 63.7913 25.74C64.1413 25.4004 64.3998 24.9691 64.5405 24.49C64.6728 23.9841 64.6857 23.4517 64.5783 22.9393C64.4708 22.4269 64.2463 21.95 63.9241 21.55C63.5935 21.1679 63.1706 20.8879 62.7007 20.74C62.2221 20.606 61.7187 20.606 61.2401 20.74C60.7573 20.8377 60.3103 21.0768 59.9503 21.43C59.5971 21.7708 59.3381 22.2062 59.2011 22.69C59.0723 23.1977 59.0723 23.7322 59.2011 24.24C59.305 24.7361 59.5306 25.1947 59.8555 25.57Z" fill="#303030"/>
<path d="M57.8924 33.9999L60.3487 32.9999C60.3487 32.8199 60.4056 32.6399 60.453 32.4499L60.9177 30.6399L58.9071 30.0899L59.0873 29.3799L65.4984 31.1899L64.8535 33.7199C64.7082 34.4581 64.3182 35.1176 63.7534 35.5799C63.4939 35.7699 63.1962 35.8941 62.8836 35.9427C62.571 35.9912 62.2519 35.9629 61.9514 35.8599C61.4938 35.7552 61.0837 35.4891 60.7888 35.1055C60.494 34.7218 60.332 34.2437 60.3297 33.7499L57.7122 34.7499L57.8924 33.9999ZM61.0694 34.2799C61.1805 34.4924 61.3313 34.679 61.5125 34.8286C61.6938 34.9781 61.9018 35.0875 62.1242 35.1501C62.3465 35.2126 62.5786 35.2272 62.8064 35.1928C63.0343 35.1584 63.2531 35.0758 63.4499 34.9499C63.8685 34.5954 64.1542 34.0957 64.256 33.5399L64.7113 31.7399L61.4962 30.8299L61.041 32.6299C60.866 33.1663 60.8761 33.7506 61.0694 34.2799Z" fill="#303030"/>
<path d="M54.4876 40.4401L54.004 40.0501L56.8491 36.1001L62.1411 40.3301L59.3908 44.1601L58.9071 43.7701L61.2307 40.5401L59.3339 39.0301L57.2569 41.9201L56.7827 41.5401L58.9071 38.6501L56.944 37.0801L54.4876 40.4401Z" fill="#303030"/>
<path d="M52.2684 48.4099L50.9122 48.4899V48.0099L52.2684 47.9999L51.5382 46.8099L51.908 46.5599L52.6288 47.7599L53.2168 46.4199L53.6246 46.6499L52.9797 47.9099L54.3359 47.8299V48.3199H52.9607L53.691 49.5099L53.3211 49.7599L52.6004 48.5599L51.9744 49.8599L51.5761 49.6199L52.2684 48.4099Z" fill="#303030"/>
<path d="M39.9394 47.6099L41.0869 48.2799C41.2793 47.8902 41.5478 47.5479 41.8748 47.2756C42.2017 47.0033 42.5796 46.8071 42.9837 46.6999C43.3606 46.576 43.7571 46.5318 44.1502 46.5699C44.4914 46.5975 44.8191 46.7219 45.0986 46.9299C45.3513 47.1308 45.5372 47.4108 45.6297 47.7299C45.744 48.1247 45.7239 48.5491 45.5728 48.9299C45.3348 49.4473 45.014 49.9175 44.6244 50.3199C44.9371 50.4971 45.2271 50.7155 45.4875 50.9699C45.6663 51.1648 45.7994 51.4011 45.8763 51.6599C45.9249 51.8617 45.9279 52.0726 45.8851 52.2759C45.8423 52.4791 45.7548 52.6688 45.6297 52.8299C45.3765 53.2146 44.9988 53.4884 44.5675 53.5999C44.1888 53.7522 43.7702 53.7522 43.3915 53.5999C43.2231 53.5235 43.0738 53.407 42.9553 53.2595C42.8369 53.1121 42.7524 52.9376 42.7087 52.7499C42.6092 52.4198 42.633 52.0622 42.7751 51.7499C42.9928 51.2953 43.2777 50.8801 43.6191 50.5199L41.3335 49.1799C41.2463 49.6508 41.2271 50.1329 41.2766 50.6099H40.6981C40.6591 50.0225 40.7235 49.4326 40.8878 48.8699L39.6928 48.1699L39.9394 47.6099ZM41.5896 48.6099L44.1028 50.0799C44.4322 49.7482 44.7049 49.3592 44.9089 48.9299C45.0131 48.64 45.0131 48.3199 44.9089 48.0299C44.8659 47.8567 44.7827 47.6974 44.6669 47.5665C44.551 47.4356 44.406 47.3371 44.2451 47.2799C43.8513 47.1397 43.4248 47.1397 43.0311 47.2799C42.7094 47.3694 42.4102 47.5322 42.1546 47.7568C41.899 47.9814 41.6931 48.2624 41.5516 48.5799L41.5896 48.6099ZM45.1555 52.6099C45.2175 52.4994 45.2563 52.3762 45.2694 52.2486C45.2825 52.1209 45.2695 51.9918 45.2314 51.8699C45.1733 51.6724 45.0689 51.4936 44.9279 51.3499C44.6865 51.1352 44.4224 50.9506 44.1407 50.7999C43.8532 51.0997 43.6016 51.4356 43.3915 51.7999C43.2769 52.0271 43.2497 52.2921 43.3156 52.5399C43.3457 52.6543 43.3985 52.7607 43.4704 52.8521C43.5423 52.9434 43.6318 53.0177 43.7329 53.0699C43.9744 53.1659 44.2407 53.1659 44.4822 53.0699C44.74 52.9974 44.9651 52.8309 45.1176 52.5999L45.1555 52.6099Z" fill="#303030"/>
<path d="M28.3785 55.3201L28.5113 48.3201H29.1847L29.0803 53.9201L31.7738 49.2601H32.1057L34.6284 54.0001L34.7232 48.4301H35.3966L35.2733 55.4301H34.6948L31.9065 50.2001L28.9571 55.3301L28.3785 55.3201Z" fill="#303030"/>
<path d="M25.0782 48.0001C25.5119 48.4359 25.8222 48.9902 25.9746 49.6012C26.127 50.2121 26.1154 50.8557 25.9412 51.4601C25.7854 52.079 25.4741 52.6421 25.0402 53.0901C24.6185 53.5271 24.0899 53.8318 23.5133 53.9701C22.9051 54.1148 22.272 54.0941 21.6735 53.9101C21.0769 53.7565 20.5281 53.443 20.0802 53.0001C19.6529 52.5698 19.3476 52.0228 19.1982 51.4201C19.0523 50.7971 19.0631 50.1447 19.2294 49.5274C19.3957 48.9101 19.7118 48.3492 20.1466 47.9001C20.5607 47.4642 21.0782 47.1534 21.645 47.0001C22.2501 46.8558 22.88 46.8765 23.4754 47.0601C24.0781 47.2212 24.6305 47.5452 25.0782 48.0001ZM21.8442 47.6501C21.3803 47.764 20.9562 48.0135 20.6207 48.3701C20.2714 48.737 20.0224 49.1965 19.9 49.7001C19.7677 50.2006 19.7677 50.7296 19.9 51.2301C20.0118 51.717 20.2518 52.1607 20.5923 52.5101C20.9494 52.8783 21.3903 53.1435 21.8726 53.2801C22.3549 53.4096 22.8603 53.4096 23.3426 53.2801C23.8069 53.1597 24.2324 52.9112 24.5755 52.5601C24.923 52.1917 25.1717 51.7328 25.2963 51.2301C25.4289 50.7263 25.4289 50.1939 25.2963 49.6901C25.1749 49.205 24.9326 48.7631 24.5945 48.4101C24.2355 48.0414 23.7906 47.7792 23.3047 47.6501C22.8268 47.5108 22.322 47.5108 21.8442 47.6501Z" fill="#303030"/>
<path d="M14.6649 43L14.9209 45.75C15.0836 45.8233 15.2419 45.9068 15.3951 46L16.941 46.94L17.9842 45L18.6007 45.37L15.2813 51.4L13.119 50.09C12.4799 49.7515 11.9757 49.1844 11.6964 48.49C11.5933 48.1772 11.5585 47.8439 11.5947 47.5149C11.6308 47.1859 11.7369 46.8698 11.9051 46.59C12.1255 46.1518 12.475 45.8008 12.9009 45.59C13.3334 45.4011 13.8118 45.3626 14.2665 45.48L13.9915 42.54L14.6649 43ZM13.5837 46.16C13.361 46.219 13.1518 46.3247 12.9687 46.4708C12.7856 46.617 12.6323 46.8006 12.5181 47.0107C12.4039 47.2207 12.331 47.4529 12.3039 47.6934C12.2768 47.9338 12.296 48.1776 12.3603 48.41C12.5826 48.9276 12.968 49.3481 13.4509 49.6L14.9778 50.53L16.6375 47.53L15.1106 46.6C14.6717 46.2533 14.1314 46.0799 13.5837 46.11V46.16Z" fill="#303030"/>
<path d="M9.05042 38.3101L9.47719 37.8601L12.7491 41.4101L8.00719 46.2901L4.84906 42.8501L5.28532 42.4001L7.96925 45.3101L9.591 43.5801L7.239 41.0001L7.69422 40.5401L10.0936 43.1401L11.8576 41.3301L9.05042 38.3101Z" fill="#303030"/>
<path d="M2.0039 34.38L2.23152 33L2.67726 33.07L2.42119 34.49L3.68255 34L3.83429 34.44L2.55397 34.9L3.60668 35.84L3.30319 36.2L2.28842 35.2L2.05132 36.62L1.5961 36.53L1.86164 35.11L0.590805 35.59L0.448547 35.2L1.71939 34.73L0.666676 33.8L0.979644 33.44L2.0039 34.38Z" fill="#303030"/>
</g>
<defs>
<clipPath id="clip0_1_6">
<rect width="65.3723" height="55.46" fill="white" transform="translate(0.107117)"/>
</clipPath>
</defs>
</svg>
